PathFileType	4	(X/Y/Z)	Patient4_TMGait_0pt3_03_left_27.trc.trc
DataRate	CameraRate	NumFrames	NumMarkers	Units	OrigDataRate	OrigDataStartFrame	OrigNumFrames
53.435114503817	53.435114503817	5	33	mm	53.435114503817	1	       141
Frame#	Time	Sacral			L.Shoulder			Chest			R.Shoulder			Neck			R.ASIS			L.ASIS			R.Thigh.Superior			R.Thigh.Lateral			R.Thigh.Inferior			R.Patella			L.Thigh.Superior			L.Thigh.Lateral			L.Thigh.Inferior			L.Patella			L.Shank.Superior			L.Shank.Lateral			L.Shank.Inferior			R.Shank.Superior			R.Shank.Lateral			R.Shank.Inferior			R.Heel			R.Midfoot.Superior			R.Midfoot.Lateral			R.Toe			L.Heel			L.Midfoot.Lateral			L.Midfoot.Superior			L.Toe			L.Elbow			L.Wrist			R.Elbow			R.Wrist			
		X1	Y1	Z1	X2	Y2	Z2	X3	Y3	Z3	X4	Y4	Z4	X5	Y5	Z5	X6	Y6	Z6	X7	Y7	Z7	X8	Y8	Z8	X9	Y9	Z9	X10	Y10	Z10	X11	Y11	Z11	X12	Y12	Z12	X13	Y13	Z13	X14	Y14	Z14	X15	Y15	Z15	X16	Y16	Z16	X17	Y17	Z17	X18	Y18	Z18	X19	Y19	Z19	X20	Y20	Z20	X21	Y21	Z21	X22	Y22	Z22	X23	Y23	Z23	X24	Y24	Z24	X25	Y25	Z25	X26	Y26	Z26	X27	Y27	Z27	X28	Y28	Z28	X29	Y29	Z29	X30	Y30	Z30	X31	Y31	Z31	X32	Y32	Z32	X33	Y33	Z33	

1	47.540000000000	715.359721233326	1001.870336893249	574.492905648138	903.627291635298	1424.522540984923	383.697970611565	999.259699854069	1357.858852786143	549.626058768500	912.760873733467	1435.434649698418	719.555104338370	878.485342135918	1489.992722224979	539.086076881032	948.742062597116	936.549748312334	689.496468114492	928.942414695226	955.783458730811	416.135350230734	998.466116847901	740.265612100747	649.764103379844	923.630119676122	624.719063647919	705.746951675550	999.883548962831	578.673997169790	620.194789273449	1004.453265965744	487.176379575128	621.979404316535	996.253979632270	753.142572048230	441.842926605050	931.220670895493	630.834841975011	367.888902521177	1024.265327274698	555.380069363681	430.574641809589	1022.625016232265	466.235166003614	424.017479153032	949.397962548115	408.930216362138	413.319260274004	808.318029977042	381.740828997881	353.421862475323	777.125548563863	254.658727848378	406.515606975103	968.418459068283	398.788120018512	627.959694058718	895.158689827233	298.106622419610	692.765326744469	923.277346060421	203.180229530938	624.393152365531	774.747522644948	43.854767364663	604.236260900779	949.008105861601	97.055731635560	628.577874324776	862.411575721531	37.533039678445	672.980707827379	1069.602315079378	43.301029389034	649.516159139263	577.541447084958	211.400696788522	428.481572572486	637.060597074688	158.475019708410	354.011937185086	740.877887064858	155.688847952192	383.757575259112	808.951634180090	36.185100248553	362.972762656782	912.148720230695	1066.695467158260	277.143126145046	1029.541364102399	832.286421674217	286.296367461108	891.457587307583	1101.202634933524	873.689785095450	1076.625049263643	919.053560905800	901.712696461244	
2	47.558714285714	714.242759861395	1000.539076722345	578.644674638246	899.290718344334	1423.026099482442	384.559167581621	997.389403201714	1356.917032297165	549.164359897829	913.444990526003	1434.619756837917	720.274006179108	876.712633080216	1488.996254444547	539.912280331129	948.565298215578	935.823219227376	690.939337245395	925.793572767495	955.128153145204	417.838354033149	998.048693964319	739.217220516039	650.348561186942	923.578057402316	623.380378606916	706.253672459993	999.022172215859	577.571177699741	619.895994432912	1003.336529066121	485.651482408714	621.292395822645	997.614754816399	756.936545643508	445.312436878725	937.690633122782	633.450083278358	370.432051787885	1032.380650610066	560.769383992457	433.901348774835	1033.584327175531	471.309441347349	426.613931254776	961.184406100939	412.497995428370	415.024614190770	819.641993357317	383.606916821949	356.711878683614	791.736892568705	255.090226344947	407.928270711338	966.285297371795	397.401243909179	627.604307003290	892.296972901259	297.433987411611	692.670309769062	918.844410881878	202.406116775211	624.142536227642	768.838200187957	43.799208495253	604.361922409368	943.186338437986	97.034436836201	628.591349825254	856.575246489901	37.482373801258	673.090241866372	1063.779719299646	43.360592333622	649.496508043514	593.475387063446	206.656217496025	432.282730014823	652.710591274617	157.411062313285	355.500304575028	757.046353201197	156.541273461074	383.613019093005	827.374475605701	39.481566213160	358.272950378227	898.322138438248	1065.174001977239	278.660878187150	1000.723012784938	825.829887932904	285.039363594112	904.941253760363	1100.319850459811	874.267593564381	1099.973412839521	930.731054074934	899.326356606951	
3	47.577428571429	713.046069042071	999.226227413878	582.776615499557	894.909847516202	1421.497967825279	385.411598815505	995.512849657140	1355.926897421637	548.651595432987	914.196528360881	1433.792612385327	720.947126028036	874.935580314496	1487.969274658673	540.703997115787	948.348164705412	935.047489275796	692.306774144657	922.547477802872	954.448401744835	419.471611505388	997.560519273481	738.138539040698	650.858932172768	923.477439729549	622.015682743761	706.719141331340	998.108528216181	576.441602877198	619.556966798194	1002.170219431447	484.099082161120	620.578395763055	998.803363313536	760.692721242084	448.605598160173	943.835058870970	636.038254435819	372.878652683182	1040.162354821578	566.128408159540	437.070167480268	1044.230997332727	476.453114353397	429.071387481548	972.912178839326	416.047815928147	416.606256795218	831.096322438576	384.816938938980	359.913365813957	807.109295787604	254.848795306543	409.236759869614	964.086490425528	395.994013958129	627.215015932641	889.369209359143	296.749920256092	692.557137385864	914.318887930725	201.617028876114	623.880846491214	762.820838899857	43.751786617275	604.487343265210	937.245926619247	97.003598355899	628.601378086496	850.619041069520	37.435999074178	673.199352451106	1057.838953834107	43.392797868997	649.480935273302	610.605040022368	200.413895112490	436.001023790031	669.626806877305	155.067058718236	356.931835259691	774.385997963819	156.602051005821	383.405199346698	847.385386157977	42.410470305596	353.558968320297	884.052852734899	1063.776334905302	280.143021654173	971.435801198961	819.692473401128	283.964855529729	918.869955202184	1099.620150248779	874.736952470457	1123.794128433796	943.221841949636	896.582385652010	
4	47.596142857143	711.771470820888	997.994276326535	586.751780886039	890.589043822718	1419.987971239375	386.221438529364	993.681884912720	1354.908964356544	548.067609521614	915.030984788623	1432.985062379066	721.522422435134	873.207349833009	1486.941922185960	541.419671453736	948.076949774008	934.233988361882	693.509294994457	919.250030455032	953.765971389223	420.941109052191	996.961598160789	737.047779074770	651.236930816043	923.282353381940	620.663482438865	707.114638987033	997.110716624828	575.307693831844	619.166248395700	1000.925958531075	482.557575652459	619.845414145408	999.666560372791	764.266193006834	451.531129701977	949.268446275153	638.505590241604	375.086846121397	1047.162968553964	571.264739284580	439.894720661787	1054.046910255360	481.547691177518	431.233256342814	984.170374294306	419.480320712219	417.944775142939	842.439033064808	385.028811349439	362.849455802112	823.194185097775	253.676898721308	410.337536115547	961.821092299354	394.603913072663	626.788601531711	886.400208429187	296.074003746030	692.422975008397	909.765772986045	200.833120731065	623.611627536742	756.801664359653	43.717977533786	604.607034857857	931.286466761962	96.959627185231	628.604622941984	844.645647278915	37.397433624083	673.305038022591	1051.880951475023	43.385866688864	649.471667319884	629.094144317305	192.226240151107	439.451571406623	688.024424794587	150.970611141326	358.220960672766	793.024874617543	155.556345627949	383.105497340046	869.219158813515	44.782264817835	349.002118863870	869.545190760762	1062.635661647733	281.545572839087	942.322144139741	814.245238907325	283.221428811067	933.076890677453	1099.266899442068	875.014661147118	1147.591074611830	956.643123891016	893.355898754551	
5	47.614857142857	710.423780745439	996.902473068858	590.462813030651	886.404896695437	1418.549458393733	386.960212106637	991.935577539479	1353.890709355331	547.390076703795	915.963119552471	1432.230138932139	721.954368379071	871.570217222350	1485.948188760175	542.028256403372	947.740642295183	933.398538259349	694.469887560306	915.932063344147	953.105519080718	422.168991894564	996.206711473010	735.960064690682	651.434713526698	922.937382833615	619.361509024774	707.418471292108	995.977720006115	574.188762924329	618.714588699628	999.550341269584	481.061118188505	619.101277259237	1000.063904483779	767.532442969725	453.937361437406	953.671392336206	640.770691566553	376.935546927942	1053.005256877890	576.011919878771	442.226746163462	1062.600829657150	486.494053169537	432.974541443615	994.618351804832	422.724583621813	418.945154182468	853.511718174606	383.992845627431	365.354045863313	839.971188358163	251.433587705664	411.141645819865	959.460422120132	393.264574037257	626.326100457272	883.384112945201	295.424220357294	692.268615330885	905.216135066017	200.072844286853	623.339609567752	750.848333343951	43.701958544315	604.717647724400	925.371971935080	96.901117979106	628.599784322047	838.721901940751	37.368990226371	673.405451817138	1045.970557271389	43.333444761476	649.470131059121	649.121208184401	181.852712433879	442.457713910319	708.129503567883	144.839257620162	359.285711638288	813.098334156753	153.229226658462	382.691321915003	893.068967147824	46.511383315309	344.777141042321	854.957824736312	1061.875488657925	282.853768776574	913.881970928078	809.785876226774	282.941050376586	947.454055967058	1099.423797301270	875.031920850521	1170.964731978311	971.143626676313	889.534741607810	
